<svg width="24" height="25" viewBox="0 0 24 25" fill="none" xmlns="http://www.w3.org/2000/svg">
<path d="M12.65 16.17C12.79 15.81 12.7 15.4 12.42 15.12L10.33 13.06L10.36 13.03C12.0541 11.1471 13.3199 8.91925 14.07 6.5H16.01C16.55 6.5 17 6.05 17 5.51V5.49C17 4.95 16.55 4.5 16.01 4.5H10V3.5C10 2.95 9.55 2.5 9 2.5C8.45 2.5 8 2.95 8 3.5V4.5H1.99C1.45 4.5 1 4.95 1 5.49C1 6.04 1.45 6.48 1.99 6.48H12.17C11.484 8.46441 10.406 10.2906 9 11.85C8.19 10.96 7.51 9.99 6.94 8.97C6.86478 8.82833 6.75248 8.70976 6.61509 8.62698C6.4777 8.54419 6.3204 8.5003 6.16 8.5C5.47 8.5 5.03 9.25 5.37 9.85C6 10.98 6.77 12.06 7.67 13.06L3.3 17.37C3.20505 17.4623 3.12957 17.5726 3.07803 17.6946C3.02648 17.8166 2.99993 17.9476 2.99993 18.08C2.99993 18.2124 3.02648 18.3434 3.07803 18.4654C3.12957 18.5874 3.20505 18.6977 3.3 18.79C3.69 19.18 4.32 19.18 4.72 18.79L9 14.5L11.02 16.52C11.53 17.03 12.4 16.84 12.65 16.17ZM17.5 10.5C16.9 10.5 16.36 10.87 16.15 11.44L12.48 21.24C12.24 21.85 12.7 22.5 13.35 22.5C13.74 22.5 14.09 22.26 14.23 21.89L15.12 19.5H19.87L20.77 21.89C20.91 22.25 21.26 22.5 21.65 22.5C22.3 22.5 22.76 21.85 22.53 21.24L18.86 11.44C18.64 10.87 18.1 10.5 17.5 10.5ZM15.88 17.5L17.5 13.17L19.12 17.5H15.88Z" fill="#2D2D2D"/>
</svg>
