<svg width="25" height="24" viewBox="0 0 25 24" fill="none" xmlns="http://www.w3.org/2000/svg">
<path d="M17.98 10.55C17.56 10.96 17.32 11.55 17.38 12.18C17.47 13.26 18.46 14.05 19.54 14.05H21.5V15.5C21.5 18.5 19.5 20.5 16.5 20.5H7.5C4.5 20.5 2.5 18.5 2.5 15.5V8.5C2.5 5.78 4.14 3.88 6.69 3.56C6.95 3.52 7.22 3.5 7.5 3.5H16.5C16.76 3.5 17.01 3.50999 17.25 3.54999C19.83 3.84999 21.5 5.76 21.5 8.5V9.95001H19.42C18.86 9.95001 18.35 10.17 17.98 10.55Z" stroke="#B1B1B1" stroke-width="1.5" stroke-linecap="round" stroke-linejoin="round"/>
<path d="M13.5 9H7.5" stroke="#B1B1B1" stroke-width="1.5" stroke-linecap="round" stroke-linejoin="round"/>
<path d="M22.5 10.9699V13.03C22.5 13.58 22.06 14.0299 21.5 14.0499H19.54C18.46 14.0499 17.47 13.2599 17.38 12.1799C17.32 11.5499 17.56 10.9599 17.98 10.5499C18.35 10.1699 18.86 9.94995 19.42 9.94995H21.5C22.06 9.96995 22.5 10.4199 22.5 10.9699Z" stroke="#B1B1B1" stroke-width="1.5" stroke-linecap="round" stroke-linejoin="round"/>
</svg>
