<svg width="25" height="24" viewBox="0 0 25 24" fill="none" xmlns="http://www.w3.org/2000/svg">
<path d="M12.66 10.87C12.56 10.86 12.44 10.86 12.33 10.87C9.95 10.79 8.06 8.84 8.06 6.44C8.06 3.99 10.04 2 12.5 2C14.95 2 16.94 3.99 16.94 6.44C16.93 8.84 15.04 10.79 12.66 10.87Z" stroke="#B1B1B1" stroke-width="1.5" stroke-linecap="round" stroke-linejoin="round"/>
<path d="M7.66021 14.56C5.24021 16.18 5.24021 18.82 7.66021 20.43C10.4102 22.27 14.9202 22.27 17.6702 20.43C20.0902 18.81 20.0902 16.17 17.6702 14.56C14.9302 12.73 10.4202 12.73 7.66021 14.56Z" stroke="#B1B1B1" stroke-width="1.5" stroke-linecap="round" stroke-linejoin="round"/>
<path d="M7.66016 14.56C10.4202 12.73 14.9302 12.73 17.6702 14.56" stroke="#B1B1B1" stroke-width="1.5" stroke-linecap="round" stroke-linejoin="round"/>
</svg>
